<svg width="190" height="200" viewBox="0 0 190 200" fill="none" xmlns="http://www.w3.org/2000/svg">
<path d="M144.142 62.9951L92.2622 28.9724C87.1037 25.5895 87.4261 17.9048 92.8496 14.9684L118.689 0.978879C121.314 -0.442449 124.504 -0.307816 127.001 1.32966L186.26 40.1917C188.562 41.7011 189.947 44.2749 189.942 47.033L189.814 118.048C189.809 121.04 188.17 123.789 185.545 125.21L159.706 139.2C154.283 142.136 147.701 138.19 147.712 132.008L147.824 69.8363C147.829 67.0782 146.443 64.5044 144.142 62.9951Z" fill="#047BFF"/>
<path d="M76.2056 109.319L76.0573 191.818C76.0461 197.999 82.628 201.946 88.0515 199.01L124.553 179.247C127.179 177.826 128.817 175.077 128.823 172.084L128.987 80.7426C128.992 77.9845 127.607 75.4107 125.305 73.9014L49.0838 23.9155C46.5869 22.278 43.3965 22.1434 40.7713 23.5647L4.26928 43.3273C-1.15424 46.2637 -1.4766 53.9483 3.68185 57.3312L72.5239 102.478C74.8254 103.987 76.2105 106.561 76.2056 109.319Z" fill="#047BFF"/>
<path d="M29.1082 129.094C29.1038 131.508 30.3277 133.76 32.3608 135.08L57.6944 151.535C58.776 152.238 59.4269 153.436 59.4245 154.719L59.3776 180.33C59.3721 183.343 56.0043 185.149 53.4655 183.5L3.33644 150.938C1.30327 149.618 0.0794827 147.366 0.0838626 144.952L0.191742 82.1087C0.197231 79.0952 3.56499 77.2892 6.10377 78.9383L27.4319 92.7919C28.5134 93.4944 29.1642 94.6923 29.1619 95.976L29.1082 129.094Z" fill="#047BFF"/>
</svg>
